<svg width="184" height="96" viewBox="0 0 184 96" fill="none" xmlns="http://www.w3.org/2000/svg">
<path d="M162.345 46.4123C162.392 46.5231 162.392 46.5969 162.392 46.7077C162.392 46.5969 162.345 46.5231 162.345 46.4123ZM92 27.2492C52.6995 27.2492 21.2308 36.48 21.2308 48C21.2308 59.4831 52.9826 68.7508 92 68.7508C131.017 68.7508 162.769 59.4462 162.769 48C162.769 36.5539 131.017 27.2492 92 27.2492Z" fill="#D3D2D2"/>
<path d="M22.3159 48C22.3159 59.0031 53.5015 67.9385 92 67.9385C130.498 67.9385 161.684 59.04 161.684 48C161.684 36.9969 130.498 28.0615 92 28.0615C53.5015 28.0615 22.3159 36.9969 22.3159 48Z" fill="url(#paint0_radial_1_3)"/>
<path d="M27.5528 48C27.5528 48.7385 27.7415 49.4769 28.119 50.2154C27.9774 49.7354 27.8831 49.2554 27.8831 48.7754C27.8831 39.6554 56.7098 32.2708 92.3303 32.2708C125.073 32.2708 152.107 38.5108 156.211 46.6338C153.475 38.1046 125.781 31.4215 92 31.4215C56.4267 31.3846 27.5528 38.8431 27.5528 48Z" fill="url(#paint1_linear_1_3)"/>
<path d="M158.759 48C158.759 58.0431 128.847 66.2031 92 66.2031C59.1631 66.2031 31.8933 59.7415 26.279 51.2492C30.5723 60.1108 58.5497 66.9415 92.4718 66.9415C129.366 66.9415 159.231 58.8554 159.231 48.9231C159.231 47.9262 158.901 46.9292 158.334 45.9692C158.617 46.5969 158.759 47.2985 158.759 48Z" fill="url(#paint2_linear_1_3)"/>
<path d="M104.455 49.7723C102.946 50.9908 102.851 52.5785 103.842 53.28C104.172 53.5385 104.597 53.6492 105.022 53.6862C104.361 53.0585 104.078 51.8031 104.88 50.8431C104.738 50.5477 104.691 50.2154 104.786 49.8831C104.786 49.8092 104.738 49.7354 104.644 49.7354C104.55 49.6985 104.503 49.7354 104.455 49.7723Z" fill="url(#paint3_linear_1_3)"/>
<path d="M119.883 52.3569C119.883 52.5415 119.977 52.8738 120.025 53.1323C120.119 53.0215 120.166 52.9108 120.261 52.7631C120.308 52.6523 120.308 52.6523 120.213 52.6154C120.072 52.5785 119.883 52.4677 119.883 52.3938C119.836 52.3938 119.836 52.3938 119.883 52.3569Z" fill="url(#paint4_linear_1_3)"/>
<path d="M121.676 48.3692C122.195 48.7385 122.478 49.1815 122.525 49.6246C122.525 49.8092 122.761 49.8462 122.903 49.6615C122.95 49.6246 122.997 49.5508 123.044 49.4769C122.997 49.44 122.95 49.4031 122.903 49.3292C122.714 49.1446 122.195 48.7385 121.676 48.3692Z" fill="url(#paint5_linear_1_3)"/>
<path d="M100.964 47.6308C101.342 48.0738 101.53 48.6646 101.53 49.44C101.53 49.6246 101.719 49.6246 101.813 49.4769C101.861 49.4031 101.955 49.3292 102.002 49.2554C101.766 48.5538 101.294 47.8892 100.964 47.6308Z" fill="url(#paint6_linear_1_3)"/>
<path d="M114.788 51.6923C113.372 53.0215 112.617 54.3877 112.617 55.7169C112.617 56.1969 112.853 56.7877 113.372 56.9723C113.561 57.0461 113.703 57.0831 113.891 57.12C113.844 56.9354 113.797 56.7508 113.797 56.6031C113.797 55.2369 114.316 53.8708 115.731 52.5046C117.43 50.88 119.223 50.0677 120.449 50.5108C120.402 50.1415 120.166 49.8462 119.647 49.6615C119.411 49.5877 119.175 49.5508 118.892 49.5508C117.666 49.5508 116.156 50.3631 114.788 51.6923Z" fill="url(#paint7_linear_1_3)"/>
<path d="M86.7631 48.8492C84.8759 49.4031 82.9887 50.2892 81.6677 51.6554C80.158 53.2062 79.7805 55.0892 80.7713 56.1969C81.0072 56.4554 81.2903 56.64 81.6205 56.7508C81.1015 55.4585 81.479 53.7231 82.7528 52.3938C84.0738 51.0277 85.5364 50.5108 87.1877 49.92C87.4236 49.8462 87.4236 49.7354 87.3764 49.5877C87.2821 49.3292 87.0933 48.6646 86.999 48.5169C87.0462 48.7015 86.999 48.8123 86.7631 48.8492Z" fill="url(#paint8_linear_1_3)"/>
<path d="M100.917 53.0215C99.1713 55.1262 97.52 57.1569 95.7744 59.2985C95.68 59.4092 95.5856 59.4462 95.4441 59.4831H92C91.8585 59.4831 91.8113 59.4462 91.7641 59.3723C91.8585 59.7046 92 60.2954 92.0472 60.4431C92.0944 60.5538 92.1887 60.5908 92.2831 60.5908H96.199C96.3405 60.5908 96.4821 60.5169 96.5292 60.4062C98.1333 58.4492 99.8318 56.3446 101.436 54.3877C101.813 55.3846 101.955 55.8277 102.663 56.3077C103.323 56.7877 103.936 56.8985 104.88 56.8985C105.729 56.8985 106.531 56.64 107.522 56.3077C107.899 56.1969 108.183 56.0492 108.466 55.9015C108.466 55.5323 108.513 55.1631 108.607 54.8308C108.607 54.7938 108.56 54.5723 108.324 54.6831C107.852 54.9415 107.286 55.2 106.531 55.4215C105.635 55.68 105.21 55.7908 104.361 55.7908C103.323 55.7908 102.379 55.4215 101.719 54.6092C101.342 54.1662 101.2 53.5015 101.153 53.0215C101.153 52.9846 101.106 52.9477 101.058 52.9477C101.011 52.9846 100.964 52.9846 100.917 53.0215Z" fill="url(#paint9_linear_1_3)"/>
<path d="M131.301 54.1292C129.602 55.7538 127.762 57.2677 125.969 58.3385C123.186 60.0369 120.449 60.4431 119.081 59.3723C118.562 58.9661 118.279 58.4123 118.279 57.8954C118.279 57.6369 118.09 57.6369 117.949 57.7477C116.297 59.0031 113.467 60.4061 110.872 59.4092C109.598 58.8923 108.89 57.9692 108.607 56.9354C108.749 57.6738 108.985 58.7446 109.409 59.4092C109.692 59.8523 110.353 60.3692 110.777 60.5169C113.089 61.4031 116.345 60.4061 118.468 58.8185C118.468 58.7815 118.515 58.7815 118.515 58.7815C118.609 59.0769 118.751 59.4092 118.751 59.4461C118.892 59.8154 119.128 60.1477 119.317 60.3323C120.779 61.6246 123.799 61.0338 127.007 59.1138C128.8 58.0431 130.121 56.9723 131.725 55.4954C131.772 55.4215 131.772 55.3477 131.772 55.2C131.678 54.8677 131.536 54.3138 131.442 54.0185C131.348 54.0185 131.348 54.0923 131.301 54.1292ZM108.56 56.8615C108.56 56.8615 108.56 56.8985 108.56 56.8615V56.8615Z" fill="url(#paint10_linear_1_3)"/>
<path d="M109.362 49.6615C109.221 50.4738 108.654 51.1754 107.711 51.5446C106.909 51.84 105.965 51.8031 105.305 51.3231C105.116 51.1754 104.974 50.9908 104.833 50.8062C105.022 51.3969 105.163 51.84 105.352 52.0985C105.965 52.8369 107.05 53.0215 108.23 52.5046C109.079 52.1354 109.834 51.36 109.739 50.1415C109.692 49.5138 109.456 48.8862 109.079 48.3692C109.362 48.7754 109.456 49.2185 109.362 49.6615Z" fill="url(#paint11_linear_1_3)"/>
<path d="M133.565 42.0554C133.046 42.7938 122.667 55.1262 122.006 56.4185C121.817 56.8246 121.77 57.12 122.006 57.3415C122.242 57.5631 122.525 57.6369 122.903 57.6369C122.95 57.4892 122.997 57.3046 123.091 57.12C123.752 55.8277 133.471 44.3077 133.99 43.5692C134.037 43.4954 134.037 43.4215 133.99 43.3846C133.943 43.2738 133.612 42.0554 133.612 41.9446C133.612 41.9815 133.612 42.0185 133.565 42.0554Z" fill="url(#paint12_linear_1_3)"/>
<path d="M90.5374 47.8154L90.6318 47.8892C91.2451 48.6277 91.5754 49.6246 91.6226 50.6954C91.6698 50.9169 91.7641 50.9169 91.9057 50.8062C92.0472 50.6954 92.1416 50.5846 92.2831 50.5108C92.0944 49.9569 91.8113 49.44 91.5282 48.96C91.4339 48.7385 90.9621 48.1108 90.5374 47.8154Z" fill="url(#paint13_linear_1_3)"/>
<path d="M95.8215 50.2523C93.6041 51.5815 91.7169 53.6492 90.7733 54.5723C90.2072 55.1262 89.6882 55.9015 88.2256 57.1569C85.9138 59.1139 82.8472 60.2585 79.922 59.4462C78.3179 59.04 77.1385 58.0062 76.7138 56.7508C76.6195 56.4923 76.4308 56.4554 76.2892 56.6031C75.8174 57.0831 74.8267 57.7477 74.0246 58.1908C73.9302 58.2277 73.6943 58.3385 73.5056 58.2646C73.3169 58.1908 72.7508 57.5262 72.6092 57.3415C72.6092 57.3046 72.562 57.3046 72.562 57.2677C72.7508 58.08 72.7979 58.1908 73.081 58.56C73.4113 58.9662 73.7415 59.2615 73.7887 59.2985C73.9774 59.3723 74.1661 59.2985 74.2605 59.2615C74.8738 59.0031 76.1005 58.2646 76.6667 57.7477C76.8082 57.6369 76.9969 57.7108 77.0441 57.8215C77.28 58.3754 77.6102 58.7815 77.9405 59.2615C78.3179 59.7785 79.12 60.2954 80.1579 60.5169C81.479 60.8123 82.9415 60.8492 84.8287 60.2954C86.3385 59.8523 87.9426 58.9292 89.1692 57.8585C90.6318 56.6031 91.1508 55.8277 91.7169 55.2739C92.6605 54.3508 94.1702 52.7262 96.2461 51.3231C96.9538 50.8431 97.7559 50.5108 98.2749 50.6585C98.5579 50.0677 98.4164 49.7354 98.1333 49.5508C98.039 49.5139 97.8974 49.4769 97.7559 49.4769C97.1897 49.5508 96.482 49.8831 95.8215 50.2523Z" fill="url(#paint14_linear_1_3)"/>
<path d="M58.6441 48.5908C57.3703 49.1077 55.8605 49.9569 55.1057 51.1385C54.4923 52.0985 54.398 53.2431 55.2944 54.3508C55.3887 54.4246 55.4359 54.5354 55.5303 54.6092C55.2472 53.6862 55.5774 52.7262 56.0021 51.9877C56.7569 50.8062 57.7949 50.2523 58.8328 49.7354C59.2574 49.5139 59.4933 49.2923 59.2103 48.7385C59.1159 48.5908 59.0687 48.2954 59.0215 48.0369C59.0687 48.2585 58.9272 48.48 58.6441 48.5908Z" fill="url(#paint15_linear_1_3)"/>
<path d="M68.1272 36.8123C64.4944 37.8831 62.8903 40.1354 63.6451 41.6492C63.7867 41.9446 64.0226 42.1662 64.3528 42.3138C64.1169 40.9108 65.4379 38.6585 68.9292 37.7354C73.5056 36.5538 78.601 37.2923 82.7056 37.9938C83.2718 37.6985 83.7908 37.5138 84.2626 37.2923C84.4985 37.1815 84.2154 37.0708 84.1682 37.0708C80.9128 36.5908 77.5159 36 74.2133 36C72.1374 36 70.1087 36.2215 68.1272 36.8123Z" fill="url(#paint16_linear_1_3)"/>
<path d="M83.3661 45.2677C81.7149 45.3415 79.1672 45.5262 77.4215 45.7108C76.9969 45.7477 76.9497 45.8215 76.8554 45.9323C74.0718 49.5138 71.1467 53.3538 67.8913 55.9385C64.4 58.7077 61.522 59.4462 58.4554 59.4462C54.9169 59.4831 51.7559 57.8954 50.9538 55.1262C51.3785 56.6769 52.6523 58.5231 54.1149 59.3354C55.6246 60.1477 57.0872 60.4431 58.7856 60.4431C62.2769 60.48 65.4851 59.3723 68.882 56.6769C72.1374 54.0923 74.9682 50.4738 77.7046 46.8923C77.799 46.7815 77.8933 46.7077 78.3651 46.6708C80.1108 46.4862 81.6677 46.4123 83.2246 46.3015C83.6964 46.2646 84.0267 46.2277 84.2154 46.3754C84.7815 46.8185 85.3949 47.2246 85.8667 47.4092C86.1497 47.4092 86.3856 47.4462 86.5744 47.5938C86.7631 47.5569 86.9046 47.4831 87.0462 47.4092C87.2349 47.2615 87.2349 47.0769 87.2349 46.9292C87.1877 46.6338 87.0462 46.0431 86.9518 45.8954C87.0462 46.0062 86.999 46.1908 86.8103 46.3385C86.6687 46.4492 86.48 46.56 86.2441 46.56C86.0554 46.56 85.9138 46.4862 85.678 46.4123C85.159 46.1908 84.4985 45.8215 84.0738 45.4154C83.9795 45.3046 83.8851 45.2677 83.6964 45.2677C83.5077 45.2308 83.4605 45.2677 83.3661 45.2677Z" fill="url(#paint17_linear_1_3)"/>
<path d="M68.3631 47.4092C67.9856 47.6308 67.4195 47.5938 67.1836 47.2985C67.0892 47.1877 67.0421 47.0769 67.0421 47.0031C66.9949 47.4831 67.2308 48.1477 67.4195 48.3692C67.6082 48.6277 68.2215 48.7385 68.6933 48.48C69.7313 47.8523 70.7221 47.52 71.76 47.3354C72.0431 47.04 72.3262 46.7077 72.6564 46.3385C72.7036 46.3015 72.7036 46.2646 72.6564 46.2646C72.6564 46.2277 72.6092 46.2277 72.5149 46.2277C71.0523 46.2646 69.6841 46.6338 68.3631 47.4092Z" fill="url(#paint18_linear_1_3)"/>
<path d="M112.523 36.0369C112.523 36.0736 112.571 36.0736 112.571 36.1102C112.571 36.0736 112.571 36.0369 112.523 36.0369Z" fill="url(#paint19_linear_1_3)"/>
<path d="M112.712 36.5539C112.665 37.3292 111.863 38.1046 109.928 38.9169C107.711 39.8769 105.446 40.1354 103.04 40.1723C97.2369 40.2092 91.8113 38.4369 86.2441 37.4769C86.2441 37.6615 86.2913 37.8831 86.1026 38.0308C82.9887 39.84 80.2051 41.6492 78.318 44.1969C78.2708 44.2708 78.2708 44.3077 78.4123 44.3077C78.9313 44.2708 79.4031 44.2708 79.8749 44.2339C81.5733 42.1292 83.4133 40.9477 86.1969 39.3231C86.3856 39.2123 86.6215 39.1015 86.5272 38.6585C92.1415 39.6185 96.3877 41.2431 103.653 41.28C105.824 41.28 108.843 40.7262 110.494 39.9508C112.382 39.0646 112.901 38.4 112.948 37.7354C112.948 37.5139 112.901 37.1815 112.853 37.0339C112.806 36.8123 112.759 36.5169 112.665 36.2954C112.712 36.3323 112.712 36.4431 112.712 36.5539Z" fill="url(#paint20_linear_1_3)"/>
<path d="M85.6779 41.9077C85.6308 41.9446 85.5364 42.0185 85.4421 42.0554C84.8759 42.4985 84.7344 43.0892 84.7815 43.5323C84.8287 43.7169 84.9231 43.7539 85.0174 43.7169C85.1118 43.7169 85.2533 43.68 85.3477 43.6431C85.3949 43.3846 85.5364 43.1631 85.8195 42.9415C86.0554 42.7939 86.3385 42.72 86.5744 42.7569C86.8103 42.4246 86.8574 42.0185 86.5744 41.8339C86.48 41.76 86.3385 41.7231 86.1497 41.7231C86.0554 41.76 85.8667 41.7969 85.6779 41.9077Z" fill="url(#paint21_linear_1_3)"/>
<path d="M87.8954 43.4585C87.3764 44.2708 86.48 44.6769 85.6308 44.8985C85.6308 44.8985 85.4421 44.9354 85.4892 45.0462C85.4892 45.1939 86.1026 45.4892 86.48 45.6739C86.5272 45.6739 86.6215 45.6369 86.6215 45.6369C87.0462 45.4892 87.7538 45.1569 88.1785 44.4554C88.4615 44.0123 88.6031 43.6431 88.4615 42.8308C88.3672 42.2769 88.2256 41.76 88.0369 41.5385C88.4615 42.1292 88.32 42.8677 87.8954 43.4585Z" fill="url(#paint22_linear_1_3)"/>
<path d="M72.4205 39.7292C72.5149 39.9138 72.5149 40.2462 72.3261 40.6154C70.7692 43.4585 67.8441 45.6738 64.2584 45.7846C62.0882 45.8215 60.4841 44.9723 59.7292 43.7169C60.2954 44.6769 61.4277 45.5262 62.4185 46.0062C63.1733 46.3754 64.1641 46.5969 65.2492 46.56C68.9764 46.4492 71.8072 44.0492 72.7508 42.0185C72.9867 41.4646 72.7979 40.8738 72.7036 40.5046C72.6092 40.32 72.562 39.9877 72.4205 39.7292Z" fill="url(#paint23_linear_1_3)"/>
<path d="M162.345 46.4123C162.392 46.5231 162.392 46.5969 162.392 46.7077C162.392 46.5969 162.345 46.5231 162.345 46.4123ZM21.7026 48.2585C21.7026 45.8215 23.0708 43.4215 25.9487 41.1323C36.0923 33.12 62.6072 27.7292 91.8585 27.6185C130.64 27.5077 162.203 36.5539 162.297 47.7785C162.297 50.2154 160.882 52.5785 158.004 54.8677C147.861 62.88 121.393 68.3077 92.1415 68.3815C53.36 68.5292 21.7969 59.4831 21.7026 48.2585ZM92 27.2492C52.6995 27.2492 21.2308 36.48 21.2308 48C21.2308 59.4831 52.9826 68.7508 92 68.7508C131.017 68.7508 162.769 59.4462 162.769 48C162.769 36.5539 131.017 27.2492 92 27.2492Z" fill="#4F4C4D"/>
<path d="M21.4667 48C21.4667 48.5539 21.561 49.0708 21.7026 49.6246C21.6082 49.1815 21.5139 48.7015 21.5139 48.2585C21.5139 45.7846 22.9292 43.3108 25.8072 41.0215C35.998 32.9723 62.56 27.5446 91.8585 27.4708C95.9159 27.4708 99.9262 27.5446 103.795 27.7292C99.9733 27.5446 96.0103 27.4339 92 27.4339C52.8882 27.4339 21.4667 36.5908 21.4667 48Z" fill="url(#paint24_linear_1_3)"/>
<path d="M162.486 47.7785C162.486 50.2523 161.024 52.6892 158.098 54.9785C147.955 62.9908 121.393 68.4554 92.0944 68.5661C87.9426 68.5661 83.8851 68.4923 79.9221 68.3077C83.838 68.4923 87.8482 68.6031 91.9528 68.6031C130.876 68.6031 162.486 59.2985 162.486 48C162.486 47.5569 162.439 47.1508 162.345 46.7077C162.486 47.0769 162.486 47.4461 162.486 47.7785Z" fill="url(#paint25_linear_1_3)"/>
<path d="M25.1938 48C25.1938 58.0431 55.1056 66.2031 91.9528 66.2031C128.847 66.2031 158.712 58.0431 158.712 48C158.759 37.9569 128.894 29.8338 92 29.8338C55.1056 29.8338 25.1938 37.9569 25.1938 48ZM27.5528 48C27.5528 38.8062 56.3795 31.3846 92 31.3846C127.573 31.3846 156.447 38.8062 156.447 48C156.447 57.1938 127.621 64.6154 92 64.6154C56.4267 64.6154 27.5528 57.1938 27.5528 48Z" fill="url(#paint26_linear_1_3)"/>
<path d="M129.791 41.8338C129.508 41.8338 129.413 41.8708 129.272 42.0554C128.847 42.6831 123.846 48.5169 122.95 49.6615C122.808 49.8462 122.619 49.8092 122.572 49.6246C122.478 48.96 121.723 48.1846 120.544 47.8154C119.647 47.52 118.751 47.4831 117.854 47.5569C116.203 47.7415 114.741 48.4062 113.467 49.1815C111.532 50.3262 109.834 51.84 107.711 52.9477C106.531 53.5385 104.927 54.0923 103.842 53.28C102.851 52.5785 102.993 50.9908 104.455 49.7723C104.597 49.6615 104.786 49.7354 104.786 49.8831C104.644 50.4369 104.833 50.9908 105.352 51.36C106.012 51.8031 106.956 51.8769 107.758 51.5815C108.702 51.2123 109.268 50.5108 109.409 49.6985C109.645 48.4431 108.418 47.3723 106.909 47.2615C105.682 47.1877 104.455 47.52 103.323 48.2954C102.757 48.6646 102.427 48.96 101.908 49.5138C101.766 49.6615 101.577 49.6615 101.625 49.4769C101.672 47.8892 100.823 47.0031 99.1713 46.9662C97.8503 46.9292 96.482 47.4831 95.3969 48.1846C94.2174 48.9231 93.1795 49.92 92.0472 50.8431C91.9056 50.9538 91.7641 50.9538 91.7641 50.7323C91.7169 49.6615 91.3867 48.6646 90.7733 47.9262C90.5374 47.6677 90.0656 47.5569 89.6882 47.7046C89.4995 47.7785 88.8862 48 88.4144 48.2954C88.1785 48.4431 88.0841 48.6646 88.1785 48.9231C88.7918 50.5108 88.6503 52.2831 87.8482 53.7969C87.0933 55.2 85.6308 56.4185 83.9323 56.8615C82.8 57.1569 81.6205 57.0092 80.9128 56.2338C79.9221 55.1631 80.2995 53.28 81.8092 51.6923C83.1303 50.3262 85.0174 49.44 86.9046 48.8862C87.1405 48.8123 87.1877 48.7015 87.0933 48.5538C86.999 48.2954 86.8103 47.9631 86.7631 47.8154C86.5744 47.4462 86.1026 47.4092 85.4892 47.4462C84.121 47.5569 82.8944 47.9262 81.6205 48.4431C78.4123 49.7723 76.8082 52.3938 76.1005 53.7969C75.7703 54.4615 75.4872 54.8677 75.1097 55.2369C74.5908 55.7538 73.9774 56.1969 72.798 56.9723C72.7036 57.0462 72.6092 57.1938 72.7036 57.3415C72.8451 57.5262 73.4113 58.1908 73.6 58.2646C73.7887 58.3385 74.0246 58.2277 74.119 58.1908C74.921 57.7477 75.9118 57.0831 76.3836 56.6031C76.5251 56.4554 76.7138 56.5292 76.8082 56.7508C77.2328 58.0062 78.4123 59.0031 80.0164 59.4462C82.9415 60.2215 86.0082 59.1138 88.32 57.1569C89.7826 55.9015 90.3015 55.1262 90.8677 54.5723C91.8113 53.6492 93.6985 51.5815 95.9159 50.2523C96.718 49.7723 97.7087 49.4031 98.1805 49.6246C98.558 49.8092 98.6995 50.2892 98.0862 51.1754C95.8215 54.4246 92.4718 58.2646 91.8585 59.1877C91.7641 59.3354 91.8585 59.4831 92.0472 59.4831H95.4913C95.68 59.4831 95.7744 59.4092 95.8215 59.2985C97.5672 57.1569 99.2185 55.1262 100.964 53.0215C101.058 52.9108 101.153 52.9846 101.153 53.0585C101.2 53.5385 101.342 54.2031 101.719 54.6462C102.379 55.4585 103.323 55.7908 104.361 55.8277C105.21 55.8277 105.635 55.7538 106.531 55.4585C107.286 55.2369 107.852 54.9785 108.324 54.72C108.607 54.5723 108.654 54.8308 108.607 54.8677C108.183 56.5662 108.702 58.5969 110.872 59.4092C113.467 60.4062 116.297 59.0031 117.949 57.7477C118.09 57.6369 118.279 57.6369 118.279 57.8954C118.326 58.3754 118.609 58.9662 119.081 59.3723C120.449 60.4431 123.233 60.0369 125.969 58.3385C127.762 57.2677 129.602 55.7538 131.301 54.1292C131.348 54.0554 131.395 53.9815 131.301 53.8708C131.065 53.6492 130.687 53.4277 130.404 53.2431C130.31 53.1692 130.121 53.2062 130.027 53.2431C128.281 54.5354 126.771 55.9754 124.507 57.1938C123.752 57.6 122.525 57.9323 122.006 57.3785C121.817 57.1569 121.817 56.8615 122.006 56.4554C122.667 55.1631 133.046 42.8308 133.565 42.0923C133.659 41.9815 133.565 41.8708 133.376 41.8708C132.291 41.8338 130.876 41.8338 129.791 41.8338ZM113.372 57.0092C112.853 56.7877 112.617 56.1969 112.617 55.7538C112.665 54.4246 113.419 53.0585 114.788 51.7292C116.486 50.1046 118.373 49.2554 119.6 49.6985C120.874 50.1785 120.449 51.3231 119.883 52.2462C119.836 52.32 119.836 52.3938 119.883 52.4308C119.883 52.5415 120.072 52.6154 120.213 52.6523C120.261 52.6523 120.308 52.6892 120.261 52.8C119.836 53.5385 119.411 53.9815 118.845 54.6092C118.326 55.2 117.76 55.68 117.052 56.1231C116.25 56.64 115.212 57.1938 114.222 57.1938C113.938 57.1938 113.608 57.12 113.372 57.0092Z" fill="url(#paint27_linear_1_3)"/>
<path d="M74.6851 34.3385C73.6944 34.3385 72.7036 34.3754 71.7128 34.4492C65.3436 34.8554 59.3046 37.6615 59.2574 41.9446C59.2574 44.1231 61.239 45.8585 64.2585 45.7846C67.8441 45.6738 70.7692 43.4585 72.3262 40.6154C72.8923 39.5446 71.8072 39.1015 71.3354 39.7292C70.439 40.8369 69.1179 41.6861 67.7497 42.24C66.0513 42.8677 64.2585 42.72 63.7395 41.6492C62.9846 40.1354 64.5887 37.8831 68.2215 36.8123C73.4585 35.2985 78.9785 36.2954 84.2626 37.0708C84.3569 37.0708 84.64 37.1815 84.3569 37.2923C83.4133 37.6985 82.4697 38.0308 81.0072 38.9908C79.9692 39.6923 78.601 40.6154 77.5631 41.6123C76.5251 42.6092 75.7703 43.4954 74.7795 44.4923C74.6379 44.64 74.4964 44.64 74.4964 44.64C72.0903 44.9723 69.7785 45.1569 67.6082 46.3385C67.1836 46.56 66.9949 47.0031 67.2308 47.3354C67.4667 47.6308 68.0328 47.6677 68.4103 47.4461C69.7313 46.6708 71.0995 46.3015 72.7036 46.2646C72.7508 46.2646 72.7979 46.2646 72.8451 46.3015V46.3754C70.4862 48.9231 69.92 49.5138 68.1272 51.1015C67.2308 51.9138 66.3344 52.6154 65.3436 53.3169C61.3333 56.2338 56.9928 56.1969 55.4359 54.3508C54.4923 53.2431 54.6338 52.0985 55.2472 51.1385C56.002 49.9569 57.5118 49.1077 58.7856 48.5908C59.2574 48.4061 59.399 47.9261 58.9272 47.52C58.6441 47.2246 57.8892 47.1877 57.3703 47.2615C55.719 47.4831 53.7846 48.48 52.6051 49.6615C51.3313 50.9908 50.6708 52.5785 50.8595 54.3508C51.2369 57.6 54.6338 59.4461 58.5026 59.4461C61.5692 59.4092 64.4944 58.7077 67.9385 55.9385C71.1938 53.3538 74.1662 49.5138 76.9026 45.9323C76.9969 45.8215 77.0441 45.7477 77.4687 45.7108C79.2144 45.5261 81.7621 45.3415 83.4133 45.2677C83.7908 45.2677 83.8379 45.2677 83.9795 45.4154C84.4041 45.8215 85.0646 46.1908 85.5836 46.4123C85.8195 46.5231 85.961 46.56 86.1497 46.56C86.3856 46.56 86.5744 46.4492 86.7159 46.3385C86.9046 46.1908 86.9518 46.0061 86.8574 45.8585C86.7631 45.7108 85.6308 45.2308 85.5836 45.0461C85.5364 44.9354 85.7251 44.8985 85.7251 44.8985C86.5744 44.6769 87.4236 44.2708 87.9897 43.4585C88.5087 42.6831 88.6031 41.6123 87.6595 41.0585C86.8103 40.5415 85.5364 40.6154 84.5456 41.3538C83.5549 42.0554 83.2246 43.0523 83.3662 43.9385C83.3662 44.0861 83.3662 44.16 83.1303 44.16C81.6205 44.2708 80.1579 44.2708 78.5067 44.3446C78.4123 44.3446 78.3651 44.3077 78.4123 44.2338C80.2995 41.6861 83.0831 39.8769 86.1969 38.0677C86.3856 37.9569 86.3385 37.7354 86.3385 37.5138C91.9528 38.4738 97.3313 40.2461 103.134 40.2092C105.541 40.2092 107.852 39.9138 110.023 38.9538C111.957 38.1415 112.759 37.3661 112.806 36.5908C112.853 36.0369 112.382 35.7046 111.674 35.8154C105.824 36.8861 100.209 36.8492 94.359 36.2954C87.6595 35.6308 81.2903 34.3385 74.6851 34.3385ZM84.7815 43.5323C84.6872 43.0523 84.8759 42.3877 85.5836 41.9446C85.9138 41.7231 86.3856 41.6492 86.6215 41.8338C86.9518 42.0554 86.7631 42.5723 86.48 42.9046C86.1497 43.3108 85.5364 43.6431 85.0174 43.7169H84.9703C84.9231 43.7538 84.8287 43.7169 84.7815 43.5323Z" fill="url(#paint28_linear_1_3)"/>
<defs>
<radialGradient id="paint0_radial_1_3" cx="0" cy="0" r="1" gradientUnits="userSpaceOnUse" gradientTransform="translate(91.3867 256.397) scale(305.561 233.181)">
<stop stop-color="#00050D"/>
<stop offset="0.7" stop-color="#051125"/>
<stop offset="0.904" stop-color="#173E7E"/>
<stop offset="0.955" stop-color="#4CA9E3"/>
<stop offset="1" stop-color="#4CA9E3"/>
</radialGradient>
<linearGradient id="paint1_linear_1_3" x1="91.8778" y1="69.2329" x2="91.8778" y2="27.0224" gradientUnits="userSpaceOnUse">
<stop stop-color="#08142E"/>
<stop offset="0.809" stop-color="#17326E"/>
<stop offset="1" stop-color="#0D69A9"/>
</linearGradient>
<linearGradient id="paint2_linear_1_3" x1="92.7295" y1="69.2545" x2="92.7295" y2="27.0401" gradientUnits="userSpaceOnUse">
<stop stop-color="#08142E"/>
<stop offset="0.809" stop-color="#17326E"/>
<stop offset="1" stop-color="#0D69A9"/>
</linearGradient>
<linearGradient id="paint3_linear_1_3" x1="104.081" y1="61.9821" x2="104.081" y2="32.7353" gradientUnits="userSpaceOnUse">
<stop stop-color="#08142E"/>
<stop offset="0.809" stop-color="#17326E"/>
<stop offset="1" stop-color="#0D69A9"/>
</linearGradient>
<linearGradient id="paint4_linear_1_3" x1="120.048" y1="62.1016" x2="120.048" y2="32.4651" gradientUnits="userSpaceOnUse">
<stop stop-color="#08142E"/>
<stop offset="0.809" stop-color="#17326E"/>
<stop offset="1" stop-color="#0D69A9"/>
</linearGradient>
<linearGradient id="paint5_linear_1_3" x1="40780.9" y1="60.9408" x2="40780.9" y2="33.7921" gradientUnits="userSpaceOnUse">
<stop stop-color="#08142E"/>
<stop offset="0.809" stop-color="#17326E"/>
<stop offset="1" stop-color="#0D69A9"/>
</linearGradient>
<linearGradient id="paint6_linear_1_3" x1="101.51" y1="61.3349" x2="101.51" y2="33.2719" gradientUnits="userSpaceOnUse">
<stop stop-color="#08142E"/>
<stop offset="0.809" stop-color="#17326E"/>
<stop offset="1" stop-color="#0D69A9"/>
</linearGradient>
<linearGradient id="paint7_linear_1_3" x1="116.497" y1="62.0975" x2="116.497" y2="32.5087" gradientUnits="userSpaceOnUse">
<stop stop-color="#08142E"/>
<stop offset="0.809" stop-color="#17326E"/>
<stop offset="1" stop-color="#0D69A9"/>
</linearGradient>
<linearGradient id="paint8_linear_1_3" x1="83.7885" y1="62.0695" x2="83.7885" y2="32.4869" gradientUnits="userSpaceOnUse">
<stop stop-color="#08142E"/>
<stop offset="0.809" stop-color="#17326E"/>
<stop offset="1" stop-color="#0D69A9"/>
</linearGradient>
<linearGradient id="paint9_linear_1_3" x1="44163.2" y1="62.0648" x2="44163.2" y2="32.6845" gradientUnits="userSpaceOnUse">
<stop stop-color="#08142E"/>
<stop offset="0.809" stop-color="#17326E"/>
<stop offset="1" stop-color="#0D69A9"/>
</linearGradient>
<linearGradient id="paint10_linear_1_3" x1="120.129" y1="62.0999" x2="120.129" y2="32.5042" gradientUnits="userSpaceOnUse">
<stop stop-color="#08142E"/>
<stop offset="0.809" stop-color="#17326E"/>
<stop offset="1" stop-color="#0D69A9"/>
</linearGradient>
<linearGradient id="paint11_linear_1_3" x1="107.321" y1="62.1079" x2="107.321" y2="32.4935" gradientUnits="userSpaceOnUse">
<stop stop-color="#08142E"/>
<stop offset="0.809" stop-color="#17326E"/>
<stop offset="1" stop-color="#0D69A9"/>
</linearGradient>
<linearGradient id="paint12_linear_1_3" x1="127.957" y1="62.0728" x2="127.957" y2="32.4844" gradientUnits="userSpaceOnUse">
<stop stop-color="#08142E"/>
<stop offset="0.809" stop-color="#17326E"/>
<stop offset="1" stop-color="#0D69A9"/>
</linearGradient>
<linearGradient id="paint13_linear_1_3" x1="91.3971" y1="61.7714" x2="91.3971" y2="32.866" gradientUnits="userSpaceOnUse">
<stop stop-color="#08142E"/>
<stop offset="0.809" stop-color="#17326E"/>
<stop offset="1" stop-color="#0D69A9"/>
</linearGradient>
<linearGradient id="paint14_linear_1_3" x1="85.5259" y1="62.0869" x2="85.5259" y2="32.6975" gradientUnits="userSpaceOnUse">
<stop stop-color="#08142E"/>
<stop offset="0.809" stop-color="#17326E"/>
<stop offset="1" stop-color="#0D69A9"/>
</linearGradient>
<linearGradient id="paint15_linear_1_3" x1="57.0108" y1="62.0652" x2="57.0108" y2="32.4782" gradientUnits="userSpaceOnUse">
<stop stop-color="#08142E"/>
<stop offset="0.809" stop-color="#17326E"/>
<stop offset="1" stop-color="#0D69A9"/>
</linearGradient>
<linearGradient id="paint16_linear_1_3" x1="73.9132" y1="62.1002" x2="73.9132" y2="32.5194" gradientUnits="userSpaceOnUse">
<stop stop-color="#08142E"/>
<stop offset="0.809" stop-color="#17326E"/>
<stop offset="1" stop-color="#0D69A9"/>
</linearGradient>
<linearGradient id="paint17_linear_1_3" x1="69.0112" y1="62.0785" x2="69.0112" y2="32.4904" gradientUnits="userSpaceOnUse">
<stop stop-color="#08142E"/>
<stop offset="0.809" stop-color="#17326E"/>
<stop offset="1" stop-color="#0D69A9"/>
</linearGradient>
<linearGradient id="paint18_linear_1_3" x1="69.9013" y1="62.0968" x2="69.9013" y2="32.4939" gradientUnits="userSpaceOnUse">
<stop stop-color="#08142E"/>
<stop offset="0.809" stop-color="#17326E"/>
<stop offset="1" stop-color="#0D69A9"/>
</linearGradient>
<linearGradient id="paint19_linear_1_3" x1="112.547" y1="61.3452" x2="112.547" y2="32.6184" gradientUnits="userSpaceOnUse">
<stop stop-color="#08142E"/>
<stop offset="0.809" stop-color="#17326E"/>
<stop offset="1" stop-color="#0D69A9"/>
</linearGradient>
<linearGradient id="paint20_linear_1_3" x1="95.6354" y1="62.0835" x2="95.6354" y2="32.4987" gradientUnits="userSpaceOnUse">
<stop stop-color="#08142E"/>
<stop offset="0.809" stop-color="#17326E"/>
<stop offset="1" stop-color="#0D69A9"/>
</linearGradient>
<linearGradient id="paint21_linear_1_3" x1="85.8246" y1="61.0822" x2="85.8246" y2="33.1312" gradientUnits="userSpaceOnUse">
<stop stop-color="#08142E"/>
<stop offset="0.809" stop-color="#17326E"/>
<stop offset="1" stop-color="#0D69A9"/>
</linearGradient>
<linearGradient id="paint22_linear_1_3" x1="87.0316" y1="62.0844" x2="87.0316" y2="32.4964" gradientUnits="userSpaceOnUse">
<stop stop-color="#08142E"/>
<stop offset="0.809" stop-color="#17326E"/>
<stop offset="1" stop-color="#0D69A9"/>
</linearGradient>
<linearGradient id="paint23_linear_1_3" x1="66.283" y1="62.0918" x2="66.283" y2="32.5027" gradientUnits="userSpaceOnUse">
<stop stop-color="#08142E"/>
<stop offset="0.809" stop-color="#17326E"/>
<stop offset="1" stop-color="#0D69A9"/>
</linearGradient>
<linearGradient id="paint24_linear_1_3" x1="76.4444" y1="78.6344" x2="66.1627" y2="29.6037" gradientUnits="userSpaceOnUse">
<stop stop-color="#B2B1B1"/>
<stop offset="0.35" stop-color="#DEDDDE"/>
<stop offset="0.65" stop-color="#DEDDDE"/>
<stop offset="1" stop-color="#B2B1B1"/>
</linearGradient>
<linearGradient id="paint25_linear_1_3" x1="119.467" y1="52.5763" x2="109.233" y2="3.77289" gradientUnits="userSpaceOnUse">
<stop stop-color="#B2B1B1"/>
<stop offset="0.35" stop-color="#DEDDDE"/>
<stop offset="0.65" stop-color="#DEDDDE"/>
<stop offset="1" stop-color="#B2B1B1"/>
</linearGradient>
<linearGradient id="paint26_linear_1_3" x1="92.0056" y1="26.7385" x2="92.0056" y2="69.1666" gradientUnits="userSpaceOnUse">
<stop stop-color="white"/>
<stop offset="0.552" stop-color="white"/>
<stop offset="0.691" stop-color="#FAFAFA"/>
<stop offset="0.8" stop-color="#D3D2D2"/>
<stop offset="1" stop-color="#BDBCBC"/>
</linearGradient>
<linearGradient id="paint27_linear_1_3" x1="103.097" y1="40.3236" x2="103.097" y2="61.3653" gradientUnits="userSpaceOnUse">
<stop stop-color="white"/>
<stop offset="0.552" stop-color="white"/>
<stop offset="0.691" stop-color="#EFEEEE"/>
<stop offset="0.8" stop-color="#E9E9E9"/>
<stop offset="1" stop-color="#D3D2D2"/>
</linearGradient>
<linearGradient id="paint28_linear_1_3" x1="-45212.1" y1="32.2987" x2="-45212.1" y2="61.4875" gradientUnits="userSpaceOnUse">
<stop stop-color="white"/>
<stop offset="0.552" stop-color="white"/>
<stop offset="0.691" stop-color="#EFEEEE"/>
<stop offset="0.8" stop-color="#E9E9E9"/>
<stop offset="1" stop-color="#D3D2D2"/>
</linearGradient>
</defs>
</svg>
